PathFileType	4	(X/Y/Z)	/home/nbianco/projects/addbio/data/HamnerRunning2013/Processed/subject08//results/MarkerData/run200.trc
DataRate	CameraRate	NumFrames	NumMarkers	Units	OrigDataRate	OrigDataStartFrame	OrigNumFrames
100	100	9	42	m	100	0	215
Frame#	Time	C7			CLAV			LACR			LASI			LCAL			LFAradius			LFAsuperior			LFAulna			LLEL			LMEL			LMT5			LPSI			LTB1			LTB2			LTB3			LTH1			LTH2			LTH3			LTOE			LUA1			LUA2			LUA3			RACR			RASI			RCAL			RFAradius			RFAsuperior			RFAulna			RLEL			RMEL			RMT5			RPSI			RTB1			RTB2			RTB3			RTH1			RTH2			RTH3			RTOE			RUA1			RUA2			RUA3		
		X1	Y1	Z1	X2	Y2	Z2	X3	Y3	Z3	X4	Y4	Z4	X5	Y5	Z5	X6	Y6	Z6	X7	Y7	Z7	X8	Y8	Z8	X9	Y9	Z9	X10	Y10	Z10	X11	Y11	Z11	X12	Y12	Z12	X13	Y13	Z13	X14	Y14	Z14	X15	Y15	Z15	X16	Y16	Z16	X17	Y17	Z17	X18	Y18	Z18	X19	Y19	Z19	X20	Y20	Z20	X21	Y21	Z21	X22	Y22	Z22	X23	Y23	Z23	X24	Y24	Z24	X25	Y25	Z25	X26	Y26	Z26	X27	Y27	Z27	X28	Y28	Z28	X29	Y29	Z29	X30	Y30	Z30	X31	Y31	Z31	X32	Y32	Z32	X33	Y33	Z33	X34	Y34	Z34	X35	Y35	Z35	X36	Y36	Z36	X37	Y37	Z37	X38	Y38	Z38	X39	Y39	Z39	X40	Y40	Z40	X41	Y41	Z41	X42	Y42	Z42

1	0.81	0.702154	1.61313	-0.490548	0.822717	1.54093	-0.422902	0.802924	1.58369	-0.61951	0.798925	1.05003	-0.592737	0.255975	0.336262	-0.559775	0.9077	1.33583	-0.57532	0.880278	1.28167	-0.720651	0.913768	1.2684	-0.575328	0.812362	1.29957	-0.823903	0.747699	1.25971	-0.798007	0.29287	0.124814	-0.634589	0.621632	1.1353	-0.523872	0.583374	0.463629	-0.5781	0.490144	0.449232	-0.644917	0.430227	0.326212	-0.579084	0.72572	0.936609	-0.654835	0.762329	0.807402	-0.626958	0.647523	0.693	-0.633683	0.346757	0.1234	-0.561326	0.795243	1.49001	-0.727524	0.729988	1.41166	-0.749138	0.794047	1.38447	-0.788891	0.707452	1.58226	-0.305924	0.784162	1.06414	-0.341822	0.783446	0.118053	-0.406675	0.730667	1.24456	-0.231181	0.534843	1.28936	-0.175987	0.688536	1.18547	-0.225885	0.478237	1.34719	-0.178505	0.457055	1.32841	-0.258664	0.968971	0.0613547	-0.291925	0.613147	1.13314	-0.440076	0.874382	0.455926	-0.353279	0.833649	0.350809	-0.307878	0.88768	0.256839	-0.359255	0.733603	0.926852	-0.276171	0.815168	0.800754	-0.285738	0.765192	0.685772	-0.311042	1.01141	0.111276	-0.363051	0.603828	1.5173	-0.238815	0.529492	1.46046	-0.285854	0.525417	1.43405	-0.208502
2	0.82	0.702173	1.60834	-0.487193	0.823253	1.53569	-0.420589	0.802632	1.57927	-0.617886	0.799923	1.04475	-0.589596	0.25543	0.346117	-0.558725	0.907371	1.32642	-0.574662	0.877426	1.2748	-0.720592	0.912105	1.25914	-0.575731	0.808278	1.2957	-0.82284	0.743254	1.25653	-0.796325	0.285457	0.131641	-0.636626	0.622642	1.12937	-0.522419	0.589168	0.458788	-0.577715	0.495125	0.449032	-0.644405	0.429655	0.328788	-0.578759	0.729332	0.931521	-0.653761	0.767615	0.802969	-0.625768	0.654962	0.686747	-0.632664	0.339066	0.130323	-0.56313	0.792343	1.48557	-0.726341	0.726717	1.40736	-0.746459	0.790227	1.38073	-0.787678	0.708236	1.57596	-0.302879	0.785347	1.05829	-0.338627	0.779554	0.116679	-0.407338	0.734676	1.23847	-0.228454	0.538131	1.28103	-0.173582	0.693107	1.17898	-0.223324	0.48067	1.3383	-0.176134	0.460102	1.31937	-0.256495	0.964548	0.0535754	-0.296126	0.613991	1.1266	-0.438583	0.874492	0.450156	-0.354003	0.833647	0.345242	-0.308355	0.886527	0.250939	-0.360422	0.733885	0.921841	-0.27464	0.815597	0.795618	-0.28276	0.765638	0.680676	-0.311032	1.00756	0.100145	-0.369093	0.605099	1.50992	-0.235159	0.530719	1.45257	-0.283018	0.527207	1.42613	-0.20567
3	0.83	0.702078	1.60267	-0.483939	0.823691	1.52957	-0.41828	0.80193	1.57387	-0.615916	0.80131	1.03914	-0.587179	0.256473	0.354908	-0.557004	0.90697	1.3151	-0.574394	0.874038	1.26666	-0.720923	0.90975	1.24818	-0.576339	0.803531	1.29116	-0.821816	0.738082	1.25268	-0.794732	0.28035	0.137964	-0.639483	0.623465	1.1224	-0.520966	0.59592	0.453098	-0.577722	0.501018	0.448177	-0.64394	0.430502	0.33072	-0.578567	0.732596	0.925541	-0.652684	0.772911	0.79763	-0.625131	0.662714	0.679444	-0.631902	0.333677	0.136755	-0.565744	0.78931	1.48053	-0.725036	0.72322	1.40255	-0.743788	0.786048	1.37621	-0.786431	0.708895	1.56872	-0.299851	0.786932	1.05209	-0.336112	0.76987	0.113958	-0.409257	0.739357	1.23084	-0.225791	0.542283	1.27107	-0.17078	0.698394	1.1709	-0.220921	0.483827	1.32781	-0.173138	0.463545	1.30876	-0.253531	0.954339	0.0488711	-0.298931	0.614803	1.11904	-0.436986	0.873873	0.442766	-0.354963	0.831712	0.338439	-0.309544	0.881512	0.243475	-0.362962	0.734851	0.915538	-0.27415	0.817248	0.789945	-0.281016	0.766687	0.674809	-0.310657	0.998282	0.0891444	-0.375223	0.606539	1.50097	-0.231387	0.532106	1.44319	-0.279569	0.52949	1.41636	-0.20245
4	0.84	0.70187	1.5961	-0.480828	0.824127	1.52251	-0.415859	0.800825	1.56763	-0.613697	0.802839	1.03305	-0.585494	0.259118	0.362592	-0.554861	0.906424	1.30198	-0.57459	0.870109	1.25745	-0.721702	0.90693	1.23548	-0.577714	0.798205	1.28603	-0.820886	0.732267	1.24821	-0.793297	0.277524	0.14372	-0.642802	0.623943	1.11438	-0.519485	0.603655	0.446711	-0.578152	0.507862	0.446634	-0.64354	0.432818	0.332023	-0.578461	0.735495	0.918634	-0.651536	0.778209	0.791401	-0.62494	0.670843	0.671136	-0.631404	0.330574	0.142644	-0.56882	0.786194	1.47491	-0.723542	0.719474	1.39729	-0.741182	0.781577	1.371	-0.785137	0.709487	1.56062	-0.296861	0.788675	1.04544	-0.334311	0.754056	0.108844	-0.412568	0.744704	1.22178	-0.223178	0.54732	1.25963	-0.167586	0.70456	1.16143	-0.218611	0.487863	1.31589	-0.169552	0.467412	1.29667	-0.249836	0.938492	0.0472948	-0.300139	0.615442	1.11052	-0.43531	0.872344	0.43391	-0.356447	0.827351	0.330676	-0.311796	0.872019	0.234737	-0.367126	0.736822	0.907997	-0.274549	0.82005	0.783808	-0.280353	0.768689	0.668141	-0.309871	0.983368	0.0800519	-0.38017	0.608161	1.49056	-0.227581	0.533763	1.43245	-0.275592	0.532295	1.40482	-0.198896
5	0.85	0.701521	1.58856	-0.477909	0.824703	1.51449	-0.413242	0.799359	1.56083	-0.611648	0.804167	1.02634	-0.584177	0.263507	0.369183	-0.552679	0.905586	1.28725	-0.575343	0.865625	1.24746	-0.723005	0.904092	1.2209	-0.580906	0.792416	1.28047	-0.820157	0.725895	1.24321	-0.792092	0.276874	0.14884	-0.646085	0.623828	1.10536	-0.517948	0.612463	0.439926	-0.57893	0.51581	0.444366	-0.643231	0.436727	0.332718	-0.578354	0.738065	0.910729	-0.650306	0.783523	0.784383	-0.624995	0.67942	0.661961	-0.631093	0.329655	0.147915	-0.571867	0.782945	1.46871	-0.721887	0.71545	1.39158	-0.738695	0.776869	1.36518	-0.7838	0.710095	1.55179	-0.293903	0.79022	1.03818	-0.33293	0.733232	0.101084	-0.41679	0.75074	1.2114	-0.220702	0.553284	1.24691	-0.164068	0.711643	1.15068	-0.216284	0.492966	1.3027	-0.165587	0.471942	1.28323	-0.245633	0.918561	0.0478127	-0.300184	0.615634	1.10125	-0.43361	0.869706	0.424166	-0.358629	0.820399	0.322608	-0.315101	0.858346	0.225523	-0.37255	0.739871	0.899806	-0.275293	0.8234	0.7773	-0.280558	0.771685	0.660808	-0.30876	0.963985	0.0745185	-0.382938	0.610012	1.47897	-0.223756	0.535806	1.42045	-0.271226	0.535736	1.39174	-0.194991
6	0.86	0.70096	1.58003	-0.475188	0.8255	1.50571	-0.410561	0.797598	1.55384	-0.610277	0.805118	1.01905	-0.58277	0.269807	0.374749	-0.5508	0.90429	1.27115	-0.57673	0.860557	1.23695	-0.724888	0.901433	1.20455	-0.586485	0.786191	1.27462	-0.819696	0.719013	1.23788	-0.79113	0.278436	0.153279	-0.648978	0.623011	1.09558	-0.51637	0.622358	0.433064	-0.579682	0.525066	0.441419	-0.643036	0.442362	0.332866	-0.578133	0.740453	0.901867	-0.649114	0.788892	0.776867	-0.625078	0.688448	0.65222	-0.63082	0.330949	0.152501	-0.574529	0.779395	1.46201	-0.720251	0.71116	1.38546	-0.736349	0.771926	1.35883	-0.782437	0.71078	1.54237	-0.290913	0.79137	1.03031	-0.331561	0.710418	0.0925557	-0.420964	0.757538	1.19983	-0.218575	0.560199	1.23309	-0.160373	0.719515	1.1387	-0.213873	0.499197	1.28833	-0.161549	0.477533	1.26866	-0.24122	0.897227	0.0488343	-0.30002	0.615203	1.09178	-0.431915	0.866035	0.41449	-0.361302	0.811751	0.314994	-0.318814	0.842493	0.216904	-0.378175	0.743182	0.892028	-0.275508	0.826225	0.77051	-0.281385	0.774892	0.653213	-0.30764	0.942938	0.0722949	-0.383987	0.612156	1.4665	-0.219785	0.538246	1.40733	-0.266504	0.540028	1.37741	-0.190718
7	0.87	0.700142	1.57087	-0.4726	0.826491	1.49661	-0.408091	0.79564	1.54689	-0.609704	0.805716	1.01154	-0.581294	0.277968	0.379327	-0.549442	0.902447	1.25398	-0.57885	0.854841	1.22605	-0.727358	0.898524	1.18699	-0.593765	0.779428	1.26865	-0.819447	0.711654	1.23254	-0.790331	0.282556	0.156992	-0.651343	0.621655	1.08571	-0.514807	0.633172	0.426421	-0.579767	0.535759	0.437973	-0.642941	0.449805	0.332607	-0.577701	0.742856	0.892478	-0.648105	0.794374	0.769403	-0.625039	0.697882	0.642466	-0.630445	0.334798	0.156349	-0.576661	0.775408	1.45502	-0.718829	0.706629	1.37908	-0.734185	0.76672	1.3521	-0.781061	0.711569	1.53264	-0.287804	0.792146	1.02211	-0.330111	0.68862	0.0860245	-0.424417	0.765194	1.18726	-0.217016	0.568083	1.21831	-0.156689	0.728136	1.1257	-0.211423	0.506522	1.27298	-0.157609	0.484447	1.25323	-0.236821	0.876617	0.0494873	-0.300322	0.614257	1.08297	-0.430239	0.861687	0.405777	-0.364091	0.802891	0.308322	-0.322185	0.826895	0.209687	-0.383119	0.745339	0.885477	-0.274572	0.827663	0.763637	-0.282431	0.777135	0.645913	-0.30688	0.922827	0.0716784	-0.384592	0.614684	1.45333	-0.215533	0.541024	1.39328	-0.261265	0.545433	1.362	-0.186227
8	0.88	0.699185	1.56189	-0.470044	0.827567	1.48772	-0.406009	0.79367	1.54012	-0.609499	0.806002	1.00426	-0.580275	0.287659	0.382867	-0.548702	0.90004	1.23602	-0.581817	0.84837	1.21494	-0.730328	0.894556	1.16908	-0.601311	0.772003	1.26274	-0.819258	0.703869	1.22751	-0.789554	0.289709	0.15992	-0.65314	0.62003	1.07675	-0.513328	0.644764	0.420345	-0.578726	0.547863	0.43433	-0.642868	0.459049	0.332107	-0.577038	0.745344	0.883444	-0.647289	0.800021	0.762705	-0.624813	0.707712	0.633443	-0.629922	0.341677	0.15941	-0.578221	0.770998	1.44805	-0.71768	0.701822	1.37277	-0.732272	0.76122	1.34524	-0.779709	0.71249	1.52302	-0.284547	0.792639	1.01409	-0.328854	0.668808	0.0828575	-0.427058	0.773792	1.17404	-0.216127	0.577025	1.20287	-0.153185	0.737644	1.11211	-0.209077	0.514969	1.25712	-0.153742	0.492617	1.23723	-0.23252	0.857131	0.0498625	-0.301111	0.613134	1.07561	-0.428668	0.856933	0.398384	-0.366695	0.794605	0.302715	-0.324867	0.812602	0.204066	-0.387184	0.745439	0.880124	-0.272749	0.82767	0.757075	-0.283192	0.777805	0.63939	-0.306576	0.904256	0.0711371	-0.385527	0.617801	1.43951	-0.211076	0.544139	1.3786	-0.255291	0.552123	1.34571	-0.18181
9	0.89	0.698437	1.55411	-0.467442	0.828611	1.47942	-0.404297	0.791924	1.53357	-0.609047	0.805919	0.997411	-0.580195	0.298461	0.38523	-0.548591	0.896975	1.21754	-0.585679	0.841037	1.20396	-0.733599	0.888966	1.15149	-0.60825	0.76393	1.25709	-0.819002	0.695726	1.22308	-0.788672	0.300153	0.162	-0.654327	0.618215	1.06954	-0.512008	0.65735	0.415297	-0.576823	0.561221	0.430845	-0.642705	0.470017	0.331465	-0.576225	0.747681	0.875749	-0.646539	0.805844	0.757385	-0.624378	0.717986	0.625819	-0.629318	0.351846	0.161622	-0.579169	0.766333	1.44152	-0.716717	0.69665	1.36694	-0.730584	0.755347	1.33867	-0.778506	0.713615	1.51397	-0.281228	0.792869	1.00677	-0.3281	0.649976	0.0823225	-0.429021	0.783392	1.16069	-0.215882	0.587217	1.18731	-0.149984	0.748174	1.09846	-0.207054	0.524685	1.24121	-0.149904	0.501746	1.22102	-0.228301	0.837907	0.0502797	-0.302012	0.612136	1.06989	-0.427407	0.851626	0.392064	-0.368821	0.786342	0.298106	-0.32682	0.798892	0.199748	-0.390434	0.743818	0.875322	-0.271043	0.826887	0.751268	-0.283402	0.777222	0.633815	-0.306429	0.88607	0.0702331	-0.386625	0.621835	1.42533	-0.206753	0.547772	1.36364	-0.248634	0.560028	1.32904	-0.177681
